<svg width="21" height="20" viewBox="0 0 21 20" fill="none" xmlns="http://www.w3.org/2000/svg">
<path d="M6.14304 18.9999H3.44305C2.96567 18.9999 2.50783 18.8102 2.17027 18.4727C1.83271 18.1351 1.64307 17.6773 1.64307 17.1999V10.8999C1.64307 10.4226 1.83271 9.96472 2.17027 9.62715C2.50783 9.28959 2.96567 9.09995 3.44305 9.09995H6.14304M12.443 7.29996V3.69998C12.443 2.9839 12.1585 2.29715 11.6522 1.79081C11.1458 1.28446 10.4591 1 9.74301 1L6.14304 9.09995V18.9999H16.295C16.7291 19.0048 17.1503 18.8527 17.4811 18.5715C17.8119 18.2903 18.0299 17.8991 18.095 17.4699L19.337 9.36995C19.3761 9.11197 19.3587 8.84856 19.286 8.59798C19.2132 8.34739 19.0868 8.11562 18.9156 7.91872C18.7444 7.72182 18.5324 7.5645 18.2944 7.45765C18.0563 7.35081 17.7979 7.29701 17.537 7.29996H12.443Z" stroke="white" stroke-width="2" stroke-linecap="round" stroke-linejoin="round"/>
</svg>
