<svg width="20" height="20" viewBox="0 0 20 20" fill="none" xmlns="http://www.w3.org/2000/svg">
<path d="M5.49997 9.09995L9.09995 1C9.81603 1 10.5028 1.28446 11.0091 1.79081C11.5155 2.29715 11.7999 2.9839 11.7999 3.69998V7.29996H16.8939C17.1548 7.297 17.4133 7.35081 17.6513 7.45765C17.8894 7.5645 18.1013 7.72182 18.2726 7.91872C18.4438 8.11562 18.5701 8.34739 18.6429 8.59798C18.7156 8.84856 18.733 9.11197 18.6939 9.36995L17.4519 17.4699C17.3868 17.8991 17.1688 18.2903 16.838 18.5715C16.5072 18.8527 16.086 19.0048 15.6519 18.9999H5.49997M5.49997 9.09995V18.9999M5.49997 9.09995H2.79999C2.3226 9.09995 1.86477 9.28959 1.5272 9.62715C1.18964 9.96472 1 10.4226 1 10.8999V17.1999C1 17.6773 1.18964 18.1351 1.5272 18.4727C1.86477 18.8102 2.3226 18.9999 2.79999 18.9999H5.49997" stroke="#FB743E" stroke-width="2" stroke-linecap="round" stroke-linejoin="round"/>
</svg>
