<svg width="14" height="16" viewBox="0 0 14 16" fill="none" xmlns="http://www.w3.org/2000/svg">
<path d="M7.21733 0C2.83133 0.000666667 0.5 2.81067 0.5 5.87467C0.5 7.29533 1.294 9.068 2.56533 9.63C2.928 9.79333 2.88 9.594 3.192 8.40067C3.21667 8.30133 3.204 8.21533 3.124 8.12267C1.30667 6.02067 2.76933 1.69933 6.958 1.69933C13.02 1.69933 11.8873 10.0873 8.01267 10.0873C7.014 10.0873 6.27 9.30333 6.50533 8.33333C6.79067 7.178 7.34933 5.936 7.34933 5.10333C7.34933 3.00467 4.22267 3.316 4.22267 6.09667C4.22267 6.956 4.52667 7.536 4.52667 7.536C4.52667 7.536 3.52067 11.6 3.334 12.3593C3.018 13.6447 3.37667 15.7253 3.408 15.9047C3.42733 16.0033 3.538 16.0347 3.6 15.9533C3.69933 15.8233 4.91533 14.0887 5.256 12.8347C5.38 12.378 5.88867 10.5247 5.88867 10.5247C6.224 11.13 7.19067 11.6367 8.22067 11.6367C11.2847 11.6367 13.4993 8.94333 13.4993 5.60133C13.4887 2.39733 10.7467 0 7.21733 0V0Z" fill="#272343"/>
</svg>
